<svg width="22" height="18" viewBox="0 0 22 18" fill="none" xmlns="http://www.w3.org/2000/svg">
<g clip-path="url(#clip0_12_2)">
<path d="M22 2.15683C21.173 2.51683 20.299 2.75483 19.404 2.86383C20.348 2.29683 21.055 1.40582 21.395 0.353821C20.508 0.884821 19.537 1.25881 18.524 1.45981C17.847 0.721808 16.945 0.230812 15.961 0.0638121C14.976 -0.104188 13.964 0.0618205 13.083 0.53482C12.202 1.00782 11.503 1.76082 11.094 2.67682C10.685 3.59282 10.59 4.61882 10.824 5.59482C9.03001 5.50382 7.27599 5.03383 5.67499 4.21683C4.07299 3.39983 2.66099 2.25281 1.52899 0.851806C1.13199 1.54881 0.923011 2.33783 0.924011 3.13983C0.923011 3.88583 1.10501 4.61983 1.45401 5.27783C1.80301 5.93583 2.30899 6.49682 2.92599 6.90982C2.20899 6.89082 1.507 6.6968 0.880005 6.3468V6.40182C0.885005 7.44682 1.25001 8.45682 1.91101 9.26282C2.57201 10.0688 3.49101 10.6198 4.51001 10.8238C4.11801 10.9438 3.70999 11.0068 3.29999 11.0118C3.01599 11.0088 2.733 10.9828 2.453 10.9348C2.743 11.8328 3.305 12.6188 4.06 13.1808C4.815 13.7438 5.72599 14.0558 6.66599 14.0748C5.07899 15.3298 3.11901 16.0148 1.10001 16.0198C0.732006 16.0218 0.365 15.9988 0 15.9538C2.062 17.2918 4.46501 18.0018 6.91901 17.9988C8.61301 18.0168 10.293 17.6948 11.861 17.0528C13.43 16.4108 14.856 15.4608 16.055 14.2588C17.254 13.0558 18.203 11.6258 18.846 10.0508C19.489 8.47581 19.813 6.78882 19.8 5.08582C19.8 4.89782 19.8 4.69882 19.8 4.49982C20.663 3.85282 21.408 3.05983 22 2.15683Z" fill="white"/>
</g>
<defs>
<clipPath id="clip0_12_2">
<rect width="22" height="18" fill="white"/>
</clipPath>
</defs>
</svg>
