<svg width="65" height="72" viewBox="0 0 65 72" fill="none" xmlns="http://www.w3.org/2000/svg">
<path d="M48.13 43.3509C47.996 43.4949 47.877 43.6529 47.775 43.8219C47.658 43.9719 47.568 44.1409 47.509 44.3219C47.419 44.4979 47.359 44.6869 47.332 44.8819C47.212 45.4459 47.274 46.0329 47.509 46.5599C47.642 46.9249 47.853 47.2569 48.129 47.5319C48.405 47.8069 48.738 48.0179 49.105 48.1499C49.455 48.3149 49.84 48.3959 50.227 48.3859C50.611 48.3899 50.993 48.3199 51.35 48.1789C51.703 48.0089 52.031 47.7909 52.325 47.5319C52.599 47.2569 52.815 46.9299 52.963 46.5719C53.11 46.2129 53.184 45.8289 53.182 45.4409C53.192 45.0549 53.111 44.6719 52.945 44.3219C52.796 43.9649 52.586 43.6369 52.325 43.3509C52.049 43.0779 51.722 42.8619 51.362 42.7149C51.002 42.5689 50.616 42.4939 50.227 42.4969C49.841 42.5009 49.46 42.5809 49.105 42.7319C48.742 42.8719 48.411 43.0829 48.13 43.3509ZM35.957 55.5989C35.84 55.7499 35.75 55.9189 35.691 56.0999C35.58 56.2719 35.5 56.4609 35.455 56.6589C35.366 57.0369 35.366 57.4299 35.455 57.8079L35.632 58.3379L35.898 58.8679L36.252 59.3089C36.833 59.8609 37.606 60.1679 38.409 60.1629C38.798 60.1659 39.183 60.0909 39.543 59.9449C39.903 59.7979 40.231 59.5819 40.507 59.3089C40.768 59.0229 40.978 58.6949 41.127 58.3379C41.311 57.8919 41.382 57.4069 41.334 56.9279C41.287 56.4479 41.121 55.9869 40.853 55.5859C40.584 55.1839 40.221 54.8549 39.795 54.6259C39.369 54.3979 38.893 54.2769 38.409 54.2739C37.627 54.2849 36.878 54.5899 36.311 55.1279L35.957 55.5989ZM48.13 55.1279C47.861 55.4079 47.65 55.7389 47.509 56.0999C47.261 56.6329 47.179 57.2279 47.273 57.8079L47.45 58.3379C47.515 58.5249 47.604 58.7039 47.716 58.8679C47.825 59.0219 47.943 59.1699 48.07 59.3089C48.351 59.5779 48.683 59.7879 49.045 59.9279C49.399 60.0839 49.782 60.1639 50.168 60.1639C50.555 60.1639 50.937 60.0839 51.291 59.9279C51.649 59.7789 51.979 59.5699 52.266 59.3089C52.55 59.0389 52.778 58.7149 52.935 58.3559C53.093 57.9969 53.176 57.6109 53.182 57.2189C53.192 56.8329 53.111 56.4489 52.945 56.0999C52.796 55.7429 52.586 55.4149 52.325 55.1279C52.038 54.8679 51.708 54.6589 51.35 54.5099C50.996 54.3539 50.614 54.2739 50.227 54.2739C49.841 54.2739 49.458 54.3539 49.105 54.5099C48.742 54.6499 48.411 54.8599 48.13 55.1279ZM35.691 46.5599C35.832 46.9209 36.042 47.2519 36.311 47.5319C36.878 48.0699 37.627 48.3749 38.409 48.3859C38.893 48.3829 39.369 48.2619 39.795 48.0339C40.221 47.8049 40.584 47.4759 40.853 47.0739C41.121 46.6729 41.287 46.2119 41.334 45.7329C41.382 45.2529 41.311 44.7679 41.127 44.3219C40.978 43.9649 40.768 43.6369 40.507 43.3509C40.231 43.0779 39.903 42.8619 39.543 42.7149C39.183 42.5689 38.798 42.4939 38.409 42.4969C37.627 42.5079 36.878 42.8129 36.311 43.3509C35.901 43.7649 35.624 44.2899 35.513 44.8619C35.403 45.4329 35.465 46.0239 35.691 46.5599ZM48.13 31.5729C47.869 31.8589 47.659 32.1879 47.509 32.5439C47.283 33.0809 47.221 33.6719 47.331 34.2429C47.442 34.8139 47.72 35.3399 48.13 35.7539C48.411 36.0219 48.742 36.2319 49.105 36.3719C49.458 36.5279 49.841 36.6089 50.227 36.6089C50.614 36.6089 50.996 36.5279 51.35 36.3719C51.708 36.2229 52.038 36.0139 52.325 35.7539C52.599 35.4789 52.815 35.1529 52.963 34.7939C53.11 34.4349 53.184 34.0509 53.182 33.6629C53.192 33.2769 53.111 32.8939 52.945 32.5439C52.796 32.1879 52.586 31.8589 52.325 31.5729C51.91 31.1639 51.382 30.8879 50.809 30.7769C50.236 30.6669 49.643 30.7289 49.105 30.9539C48.742 31.0949 48.411 31.3049 48.13 31.5729ZM11.8182 33.6629V57.2189C11.8182 57.9999 12.1295 58.7489 12.6835 59.3009C13.2376 59.8529 13.9891 60.1629 14.7727 60.1629H26.5909C27.375 60.1629 28.126 59.8529 28.68 59.3009C29.234 58.7489 29.545 57.9999 29.545 57.2189V33.6629C29.545 32.8819 29.234 32.1339 28.68 31.5809C28.126 31.0289 27.375 30.7189 26.5909 30.7189H14.7727C13.9891 30.7189 13.2376 31.0289 12.6835 31.5809C12.1295 32.1339 11.8182 32.8819 11.8182 33.6629ZM23.6364 36.6079V54.2739H17.7273V36.6079H23.6364ZM0 27.7739V63.1079C0 65.4509 0.9338 67.6969 2.5961 69.3539C4.2584 71.0109 6.5129 71.9409 8.8636 71.9409H56.136C58.487 71.9409 60.742 71.0109 62.404 69.3539C64.066 67.6969 65 65.4509 65 63.1079V27.7739C65 25.4319 64.066 23.1849 62.404 21.5279C60.742 19.8719 58.487 18.9409 56.136 18.9409H8.8636C6.5129 18.9409 4.2584 19.8719 2.5961 21.5279C0.9338 23.1849 0 25.4319 0 27.7739ZM56.136 24.8299C56.92 24.8299 57.671 25.1399 58.226 25.6919C58.78 26.2449 59.091 26.9939 59.091 27.7739V63.1079C59.091 63.8889 58.78 64.6379 58.226 65.1899C57.671 65.7419 56.92 66.0519 56.136 66.0519H8.8636C8.08 66.0519 7.3285 65.7419 6.7745 65.1899C6.2204 64.6379 5.9091 63.8889 5.9091 63.1079V27.7739C5.9091 26.9939 6.2204 26.2449 6.7745 25.6919C7.3285 25.1399 8.08 24.8299 8.8636 24.8299H56.136ZM35.957 32.0439C35.84 32.1939 35.75 32.3639 35.691 32.5439C35.601 32.7199 35.541 32.9089 35.514 33.1039C35.425 33.4819 35.425 33.8749 35.514 34.2519L35.691 34.7819L35.957 35.3119L36.311 35.7539C36.878 36.2919 37.627 36.5969 38.409 36.6079C38.893 36.6049 39.369 36.4849 39.795 36.2559C40.221 36.0269 40.584 35.6979 40.853 35.2969C41.121 34.8949 41.287 34.4349 41.334 33.9549C41.382 33.4749 41.311 32.9909 41.127 32.5439C40.978 32.1879 40.768 31.8589 40.507 31.5729C40.231 31.2999 39.903 31.0839 39.543 30.9379C39.183 30.7909 38.798 30.7169 38.409 30.7189C37.627 30.7299 36.878 31.0349 36.311 31.5729L35.957 32.0439Z" fill="#FF3343"/>
<path d="M12.0922 2.00376C11.935 2.16376 11.8109 2.35276 11.727 2.56076C11.6431 2.76776 11.601 2.98976 11.6031 3.21376L11.7415 13.4188C11.7454 13.6428 11.7935 13.8638 11.8831 14.0688C11.9726 14.2748 12.1018 14.4598 12.2632 14.6148C12.4228 14.7728 12.6119 14.8968 12.8196 14.9808C13.0272 15.0648 13.2494 15.1068 13.4734 15.1048L20.2844 15.0118L46.59 14.6548C46.814 14.6518 47.035 14.6028 47.24 14.5138C47.445 14.4238 47.631 14.2948 47.786 14.1338L52.819 8.96176C53.134 8.63876 53.308 8.20377 53.302 7.75177C53.295 7.30077 53.11 6.86977 52.787 6.55577L47.615 1.52277C47.454 1.34677 47.257 1.20777 47.038 1.11277C46.819 1.01877 46.583 0.970765 46.344 0.973765L20.1119 1.40177L13.3481 1.42176C13.1217 1.43076 12.8986 1.47877 12.688 1.56277C12.5816 1.64877 12.486 1.74677 12.4031 1.85577C12.3421 1.90677 12.2865 1.96377 12.2369 2.02577L12.0922 2.00376ZM45.741 4.44876L49.193 7.80777L45.834 11.2598L21.935 11.5838L21.8426 4.77277L45.741 4.44876ZM18.4492 4.81877L18.5415 11.6298L15.1358 11.6638L15.0438 4.87677L18.4492 4.81877Z" fill="#FF3343"/>
</svg>
