<svg width="26" height="18" viewBox="0 0 26 18" fill="none" xmlns="http://www.w3.org/2000/svg">
<g clip-path="url(#clip0_12_4)">
<path d="M25.994 6.34414C26.052 4.67814 25.683 3.02515 24.919 1.53815C24.401 0.928145 23.682 0.516144 22.888 0.374144C19.601 0.0811438 16.302 -0.0398415 13.002 0.0141585C9.71499 -0.0418415 6.42695 0.0741575 3.15195 0.363157C2.50495 0.479157 1.90495 0.77815 1.42795 1.22415C0.36495 2.19015 0.247 3.84216 0.129 5.23816C-0.043 7.74916 -0.043 10.2681 0.129 12.7791C0.163 13.5651 0.280943 14.3451 0.482943 15.1061C0.624943 15.6941 0.912956 16.2371 1.32096 16.6881C1.80196 17.1581 2.41597 17.4742 3.08097 17.5962C5.62697 17.9062 8.19297 18.0342 10.758 17.9802C14.892 18.0382 18.518 17.9801 22.805 17.6541C23.487 17.5401 24.118 17.2232 24.612 16.7472C24.943 16.4212 25.19 16.0222 25.333 15.5832C25.755 14.3062 25.962 12.9702 25.947 11.6272C25.994 10.9752 25.994 7.04214 25.994 6.34414ZM10.333 12.3252V5.12216L17.325 8.74115C15.364 9.81115 12.778 11.0222 10.333 12.3252Z" fill="white"/>
</g>
<defs>
<clipPath id="clip0_12_4">
<rect width="26" height="18" fill="white"/>
</clipPath>
</defs>
</svg>
